# xmcd
#
# Track frame offsets: 
#        150
#        25292
#        48882
#        68925
#        101560
#        122070
#        148142
#        172280
#        190915
#        214157
#        236959
#        257600
#        287480
#        310035
#
# Disc length: 4437 seconds
#
# Revision: 1
# Processed by: cddbd v1.5.2PL0 Copyright (c) Steve Scherf et al.
# Submitted via: ExactAudioCopy v0.99pb5
#
DISCID=d511530e
DTITLE=Andre Gagnon - Andre Gagnon's Love Me Tender Disc 1
DYEAR=2004
DGENRE=New Age
TTITLE0=Photo Jaunie
TTITLE1=Aria
TTITLE2=Bobichon
TTITLE3=Prologue/Comme Au Premier Jour
TTITLE4=Cher Jean-Paul
TTITLE5=L'air Du Soir
TTITLE6=Un Piano Sur La Mer
TTITLE7=Reves D'automne
TTITLE8=Sonate Pour Violoncelle Et Piano
TTITLE9=Chanson Sans Paroles
TTITLE10=Indian Summer
TTITLE11=Les Jours Transquilles
TTITLE12=Aubade
TTITLE13=Thorn Tree
EXTD=YEAR: 2003
EXTT0=
EXTT1=
EXTT2=
EXTT3=
EXTT4=
EXTT5=
EXTT6=
EXTT7=
EXTT8=
EXTT9=
EXTT10=
EXTT11=
EXTT12=
EXTT13=
PLAYORDER=
